#N canvas 683 0 667 670 10;
#X obj 44 66 soundfiler;
#X obj 257 340 dac~;
#X obj 264 288 tabplay~ drumLeft;
#X msg 264 242 bang;
#N canvas 0 0 450 300 (subpatch) 0;
#X array drumLeft 352800 float 2;
#X coords 0 1 352800 -1 200 140 1;
#X restore 116 -125 graph;
#X floatatom 44 102 5 0 0 0 - - -;
#X msg 44 27 read -resize drumloop.wav drumLeft;
#X obj 318 87 netreceive 3005 1;
#X obj 310 149 unpack i i i i;
#X text 458 130 fiducial number \, xpos \, ypos \, angle;
#X obj 275 199 route 1 2 3 4 5;
#X obj 182 206 print id;
#X obj 37 -12 loadbang;
#X connect 0 0 5 0;
#X connect 2 0 1 0;
#X connect 2 0 1 1;
#X connect 3 0 2 0;
#X connect 6 0 0 0;
#X connect 7 0 8 0;
#X connect 8 0 10 0;
#X connect 8 0 11 0;
#X connect 10 0 3 0;
#X connect 10 3 3 0;
#X connect 12 0 6 0;
